<?xml version="1.0" standalone="no"?>
<!DOCTYPE svg PUBLIC "-//W3C//DTD SVG 20010904//EN"
 "http://www.w3.org/TR/2001/REC-SVG-20010904/DTD/svg10.dtd">
<svg version="1.0" xmlns="http://www.w3.org/2000/svg"
 width="70.000000pt" height="70.000000pt" viewBox="0 0 70.000000 70.000000"
 preserveAspectRatio="xMidYMid meet">
<metadata>
Created by potrace 1.11, written by Peter Selinger 2001-2013
</metadata>
<g transform="translate(0.000000,70.000000) scale(0.100000,-0.100000)"
fill="#000000" stroke="none">
<path d="M83 523 c-10 -10 -14 -15 -9 -10 6 4 25 7 42 7 38 0 74 -38 74 -77 0
-19 3 -22 18 -15 24 12 69 6 97 -12 l23 -15 -19 -38 c-13 -25 -18 -51 -16 -77
l5 -38 -119 118 c-122 123 -133 131 -143 116 -5 -8 293 -313 313 -320 4 -1 78
68 165 153 123 122 155 159 146 170 -8 10 -21 2 -60 -38 -48 -51 -49 -51 -69
-33 -12 11 -21 27 -21 36 0 27 46 70 75 70 15 0 24 4 20 10 -9 15 -58 12 -82
-5 -12 -9 -25 -30 -28 -48 -6 -31 -8 -32 -44 -29 -21 2 -53 -3 -72 -10 -28
-12 -38 -12 -59 -1 -14 7 -44 13 -67 13 -35 0 -43 3 -43 19 0 10 -9 30 -21 45
-24 31 -77 35 -106 9z m443 -115 c17 -18 16 -21 -52 -89 l-70 -69 4 38 c2 21
-3 55 -12 76 -19 45 -15 53 26 64 44 11 83 4 104 -20z m-150 -59 c40 -45 9
-153 -37 -128 -34 18 -41 83 -13 127 18 27 26 28 50 1z"/>
</g>
</svg>
